<svg xmlns="http://www.w3.org/2000/svg" version="1.1" xmlns:xlink="http://www.w3.org/1999/xlink" xmlns:svgjs="http://svgjs.dev/svgjs" viewBox="0 0 10.209161107939963 1.980578134432027"><g transform="matrix(1,0,0,1,2.046479886667954,0.37903906721601355)"><rect width="10.209161107939963" height="10.209161107939963" x="-2.0464798866679534" y="-4.493330553969981" fill="#fffcfa"></rect><g><path d=" M 0.378 0.11249999999999982 L 0.378 1.2225 L 0.084 1.2225 L 0.084 0.11249999999999982 L 0.378 0.11249999999999982 M 0.56922509765625 0.26024999999999987 Q 0.52197509765625 0.2174999999999998 0.52197509765625 0.1529999999999998 Q 0.52197509765625 0.08699999999999997 0.56922509765625 0.04349999999999987 Q 0.61647509765625 0 0.69447509765625 0 Q 0.7709750976562499 0 0.81822509765625 0.04349999999999987 Q 0.86547509765625 0.08699999999999997 0.86547509765625 0.1529999999999998 Q 0.86547509765625 0.2174999999999998 0.81822509765625 0.26024999999999987 Q 0.7709750976562499 0.30299999999999994 0.69447509765625 0.30299999999999994 Q 0.61647509765625 0.30299999999999994 0.56922509765625 0.26024999999999987 M 0.83997509765625 0.3809999999999999 L 0.83997509765625 1.2225 L 0.54597509765625 1.2225 L 0.54597509765625 0.3809999999999999 L 0.83997509765625 0.3809999999999999 M 1.4624501953125 0.6255 L 1.3304501953125 0.6255 L 1.3304501953125 1.2225 L 1.0349501953125 1.2225 L 1.0349501953125 0.6255 L 0.9434501953125 0.6255 L 0.9434501953125 0.3809999999999999 L 1.0349501953125 0.3809999999999999 L 1.0349501953125 0.37349999999999994 Q 1.0349501953125 0.2114999999999998 1.1302001953125 0.12524999999999986 Q 1.2254501953124999 0.038999999999999924 1.4039501953125 0.038999999999999924 Q 1.4399501953125 0.038999999999999924 1.4594501953124999 0.04049999999999998 L 1.4594501953124999 0.2909999999999999 Q 1.4474501953124999 0.28949999999999987 1.4264501953125 0.28949999999999987 Q 1.3784501953125 0.28949999999999987 1.3559501953125 0.3112499999999999 Q 1.3334501953125 0.33299999999999985 1.3304501953125 0.3809999999999999 L 1.4624501953125 0.3809999999999999 L 1.4624501953125 0.6255 M 2.366928955078125 0.861 L 1.810428955078125 0.861 Q 1.8149289550781251 0.9299999999999999 1.848678955078125 0.9637499999999999 Q 1.882428955078125 0.9974999999999999 1.934928955078125 0.9974999999999999 Q 2.008428955078125 0.9974999999999999 2.0399289550781248 0.9315 L 2.353428955078125 0.9315 Q 2.3339289550781253 1.0185 2.277678955078125 1.0867499999999999 Q 2.221428955078125 1.1549999999999998 2.135928955078125 1.194 Q 2.050428955078125 1.2329999999999999 1.946928955078125 1.2329999999999999 Q 1.822428955078125 1.2329999999999999 1.725678955078125 1.1804999999999999 Q 1.628928955078125 1.128 1.5741789550781249 1.0305 Q 1.519428955078125 0.9329999999999999 1.519428955078125 0.8009999999999999 Q 1.519428955078125 0.6689999999999999 1.573428955078125 0.5722499999999999 Q 1.6274289550781251 0.4754999999999999 1.724178955078125 0.42299999999999993 Q 1.820928955078125 0.37049999999999994 1.946928955078125 0.37049999999999994 Q 2.071428955078125 0.37049999999999994 2.167428955078125 0.4214999999999999 Q 2.2634289550781252 0.4724999999999999 2.317428955078125 0.5677499999999999 Q 2.371428955078125 0.6629999999999999 2.371428955078125 0.7919999999999999 Q 2.371428955078125 0.8264999999999999 2.366928955078125 0.861 M 2.071428955078125 0.7184999999999999 Q 2.071428955078125 0.6644999999999999 2.035428955078125 0.6337499999999999 Q 1.999428955078125 0.6029999999999999 1.945428955078125 0.6029999999999999 Q 1.891428955078125 0.6029999999999999 1.856928955078125 0.6322499999999999 Q 1.822428955078125 0.6614999999999999 1.811928955078125 0.7184999999999999 L 2.071428955078125 0.7184999999999999 M 2.646720703125 1.19475 Q 2.557470703125 1.1564999999999999 2.505720703125 1.08975 Q 2.453970703125 1.023 2.447970703125 0.9389999999999998 L 2.732970703125 0.9389999999999998 Q 2.738970703125 0.9794999999999999 2.770470703125 1.002 Q 2.801970703125 1.0245 2.848470703125 1.0245 Q 2.884470703125 1.0245 2.905470703125 1.0094999999999998 Q 2.926470703125 0.9944999999999999 2.926470703125 0.9704999999999999 Q 2.926470703125 0.9389999999999998 2.891970703125 0.9239999999999999 Q 2.857470703125 0.9089999999999999 2.777970703125 0.8909999999999999 Q 2.687970703125 0.8729999999999999 2.627970703125 0.8504999999999999 Q 2.567970703125 0.8279999999999998 2.523720703125 0.7769999999999999 Q 2.479470703125 0.726 2.479470703125 0.6389999999999999 Q 2.479470703125 0.564 2.519970703125 0.5032499999999999 Q 2.560470703125 0.4424999999999999 2.639220703125 0.40649999999999986 Q 2.717970703125 0.37049999999999994 2.828970703125 0.37049999999999994 Q 2.993970703125 0.37049999999999994 3.088470703125 0.4514999999999999 Q 3.182970703125 0.5324999999999999 3.1979707031249998 0.6644999999999999 L 2.932470703125 0.6644999999999999 Q 2.924970703125 0.6239999999999999 2.897220703125 0.60225 Q 2.869470703125 0.5804999999999999 2.822970703125 0.5804999999999999 Q 2.786970703125 0.5804999999999999 2.768220703125 0.5939999999999999 Q 2.749470703125 0.6074999999999999 2.749470703125 0.6315 Q 2.749470703125 0.6614999999999999 2.783970703125 0.6772499999999999 Q 2.818470703125 0.693 2.894970703125 0.7094999999999999 Q 2.9864707031249997 0.7289999999999999 3.0472207031250003 0.7529999999999999 Q 3.107970703125 0.7769999999999999 3.153720703125 0.8302499999999999 Q 3.199470703125 0.8835 3.199470703125 0.9749999999999999 Q 3.199470703125 1.0485 3.156720703125 1.107 Q 3.113970703125 1.1655 3.035220703125 1.19925 Q 2.956470703125 1.2329999999999999 2.849970703125 1.2329999999999999 Q 2.735970703125 1.2329999999999999 2.646720703125 1.19475 M 4.14296044921875 0.861 L 3.58646044921875 0.861 Q 3.59096044921875 0.9299999999999999 3.62471044921875 0.9637499999999999 Q 3.65846044921875 0.9974999999999999 3.7109604492187502 0.9974999999999999 Q 3.78446044921875 0.9974999999999999 3.8159604492187498 0.9315 L 4.12946044921875 0.9315 Q 4.10996044921875 1.0185 4.05371044921875 1.0867499999999999 Q 3.99746044921875 1.1549999999999998 3.91196044921875 1.194 Q 3.82646044921875 1.2329999999999999 3.72296044921875 1.2329999999999999 Q 3.59846044921875 1.2329999999999999 3.50171044921875 1.1804999999999999 Q 3.40496044921875 1.128 3.35021044921875 1.0305 Q 3.29546044921875 0.9329999999999999 3.29546044921875 0.8009999999999999 Q 3.29546044921875 0.6689999999999999 3.34946044921875 0.5722499999999999 Q 3.40346044921875 0.4754999999999999 3.50021044921875 0.42299999999999993 Q 3.59696044921875 0.37049999999999994 3.72296044921875 0.37049999999999994 Q 3.84746044921875 0.37049999999999994 3.94346044921875 0.4214999999999999 Q 4.03946044921875 0.4724999999999999 4.09346044921875 0.5677499999999999 Q 4.14746044921875 0.6629999999999999 4.14746044921875 0.7919999999999999 Q 4.14746044921875 0.8264999999999999 4.14296044921875 0.861 M 3.84746044921875 0.7184999999999999 Q 3.84746044921875 0.6644999999999999 3.81146044921875 0.6337499999999999 Q 3.77546044921875 0.6029999999999999 3.72146044921875 0.6029999999999999 Q 3.66746044921875 0.6029999999999999 3.63296044921875 0.6322499999999999 Q 3.59846044921875 0.6614999999999999 3.58796044921875 0.7184999999999999 L 3.84746044921875 0.7184999999999999 M 4.266752197265625 0.573 Q 4.314002197265625 0.4754999999999999 4.395752197265625 0.42299999999999993 Q 4.477502197265625 0.37049999999999994 4.578002197265625 0.37049999999999994 Q 4.665002197265625 0.37049999999999994 4.728002197265625 0.4049999999999999 Q 4.791002197265625 0.4394999999999999 4.825502197265625 0.4979999999999999 L 4.825502197265625 0.3809999999999999 L 5.119502197265625 0.3809999999999999 L 5.119502197265625 1.2225 L 4.825502197265625 1.2225 L 4.825502197265625 1.1055 Q 4.791002197265625 1.164 4.727252197265625 1.1985 Q 4.663502197265625 1.2329999999999999 4.578002197265625 1.2329999999999999 Q 4.477502197265625 1.2329999999999999 4.395752197265625 1.1804999999999999 Q 4.314002197265625 1.128 4.266752197265625 1.02975 Q 4.219502197265625 0.9315 4.219502197265625 0.8009999999999999 Q 4.219502197265625 0.6704999999999999 4.266752197265625 0.573 M 4.781252197265625 0.6734999999999999 Q 4.737002197265625 0.6269999999999999 4.672502197265625 0.6269999999999999 Q 4.606502197265625 0.6269999999999999 4.563002197265625 0.67275 Q 4.519502197265625 0.7184999999999999 4.519502197265625 0.8009999999999999 Q 4.519502197265625 0.8819999999999999 4.563002197265625 0.9292499999999999 Q 4.606502197265625 0.9764999999999999 4.672502197265625 0.9764999999999999 Q 4.737002197265625 0.9764999999999999 4.781252197265625 0.9299999999999999 Q 4.825502197265625 0.8835 4.825502197265625 0.8009999999999999 Q 4.825502197265625 0.7199999999999999 4.781252197265625 0.6734999999999999 M 5.7014912109375 0.41549999999999987 Q 5.7719912109375 0.37349999999999994 5.8529912109375 0.37349999999999994 L 5.8529912109375 0.6869999999999999 L 5.7704912109375 0.6869999999999999 Q 5.6744912109375 0.6869999999999999 5.6279912109375 0.7244999999999999 Q 5.5814912109375 0.7619999999999999 5.5814912109375 0.855 L 5.5814912109375 1.2225 L 5.2874912109375 1.2225 L 5.2874912109375 0.3809999999999999 L 5.5814912109375 0.3809999999999999 L 5.5814912109375 0.5294999999999999 Q 5.6309912109375 0.4574999999999999 5.7014912109375 0.41549999999999987 M 5.9640234375 0.573 Q 6.0180234375 0.4754999999999999 6.1147734375 0.42299999999999993 Q 6.2115234375 0.37049999999999994 6.3360234375 0.37049999999999994 Q 6.4965234375000005 0.37049999999999994 6.6060234375 0.45824999999999994 Q 6.7155234375 0.5459999999999999 6.7470234375 0.7034999999999999 L 6.4350234375 0.7034999999999999 Q 6.4080234375 0.6209999999999999 6.3300234375 0.6209999999999999 Q 6.2745234375 0.6209999999999999 6.2422734375 0.66675 Q 6.2100234375 0.7124999999999999 6.2100234375 0.8009999999999999 Q 6.2100234375 0.8895 6.2422734375 0.9359999999999999 Q 6.2745234375 0.9824999999999999 6.3300234375 0.9824999999999999 Q 6.4095234375 0.9824999999999999 6.4350234375 0.8999999999999999 L 6.7470234375 0.8999999999999999 Q 6.7155234375 1.0559999999999998 6.6060234375 1.1444999999999999 Q 6.4965234375000005 1.2329999999999999 6.3360234375 1.2329999999999999 Q 6.2115234375 1.2329999999999999 6.1147734375 1.1804999999999999 Q 6.0180234375 1.128 5.9640234375 1.0305 Q 5.9100234375 0.9329999999999999 5.9100234375 0.8009999999999999 Q 5.9100234375 0.6704999999999999 5.9640234375 0.573 M 7.650765380859375 0.47024999999999995 Q 7.7355153808593755 0.567 7.7355153808593755 0.732 L 7.7355153808593755 1.2225 L 7.441515380859375 1.2225 L 7.441515380859375 0.7709999999999999 Q 7.441515380859375 0.699 7.404015380859375 0.65775 Q 7.366515380859375 0.6164999999999999 7.303515380859375 0.6164999999999999 Q 7.237515380859375 0.6164999999999999 7.200015380859375 0.65775 Q 7.162515380859375 0.699 7.162515380859375 0.7709999999999999 L 7.162515380859375 1.2225 L 6.868515380859375 1.2225 L 6.868515380859375 0.11249999999999982 L 7.162515380859375 0.11249999999999982 L 7.162515380859375 0.5009999999999999 Q 7.201515380859375 0.44399999999999995 7.268265380859375 0.40874999999999995 Q 7.3350153808593745 0.37349999999999994 7.422015380859375 0.37349999999999994 Q 7.566015380859375 0.37349999999999994 7.650765380859375 0.47024999999999995" fill="#8a615c" fill-rule="nonzero"></path></g><g></g><g clip-path="url(#SvgjsClipPath1045)"><g clip-path="url(#a17bd1f05-175e-40f9-8674-e35fd0d77f32eb4b375f-29db-488b-9757-4089b49cdedd)"><path d=" M -0.7303157352343745 0.33928950775839967 L -0.7303157352343745 0.3668166767769867 C -0.9115597273130887 0.3668166767769867 -0.9573553204600614 0.7548068179126891 -0.9769881912038453 1.0928105655826963 C -0.9789325342655931 1.1242178651875303 -0.9677153309920494 1.1550171116713774 -0.9460282477639788 1.1778177555102762 C -0.9244673596100127 1.2008887888890691 -0.894266054546762 1.2139291912701995 -0.8626887148107742 1.2138023277560528 L -0.762196138692565 1.2138023277560528 L -0.762196138692565 1.24132949677464 L -0.8626887148107744 1.24132949677464 C -0.902214350891751 1.24132949677464 -0.938913633269403 1.2254867555180735 -0.9660401314564843 1.1967142582394006 C -0.992946992453124 1.1684144286111007 -1.0068629659976882 1.1301935618867858 -1.0044503865740801 1.091218711198065 C -0.9828466484969434 0.7193961795606909 -0.9333800442180663 0.33928950775839967 -0.7303157352343745 0.33928950775839967" fill="#f4e7e7" transform="matrix(1,0,0,1,0,0)" fill-rule="nonzero"></path></g><g clip-path="url(#a17bd1f05-175e-40f9-8674-e35fd0d77f32eb4b375f-29db-488b-9757-4089b49cdedd)"><path d=" M -0.762196138692565 1.2413403257160325 L -0.762196138692565 1.2138131566974453 L -0.726189908564004 1.199453980411589 C -0.7222405779645691 1.1978814365705714 -0.7177686006885603 1.1983685397058723 -0.7142504405131131 1.2007544683082099 C -0.7107322803376659 1.2031403969105479 -0.7086253852093954 1.207114921176423 -0.7086253656261016 1.211365815942842 L -0.7086253656261016 1.2395102346207763 C -0.7086253656261016 1.2480109536135342 -0.7167470716701378 1.2541726212656097 -0.7249120934797423 1.2518552278077113 Z" fill="#8a615c" transform="matrix(1,0,0,1,0,0)" fill-rule="nonzero"></path></g><g clip-path="url(#a17bd1f05-175e-40f9-8674-e35fd0d77f32eb4b375f-29db-488b-9757-4089b49cdedd)"><path d=" M -0.6743734240030523 0.33928950775839967 L -0.6743734240030523 0.3668166767769867 C -0.4931294319243382 0.3668166767769867 -0.4473446677187576 0.7548068179126891 -0.4277009680335817 1.0928105655826963 C -0.42575662497183364 1.1242178651875303 -0.43697382824537767 1.1550171116713774 -0.4586609114734481 1.1778177555102762 C -0.480225911671343 1.2008893588316099 -0.5104307109704007 1.2139295755486121 -0.5420112733680447 1.2138023277560528 L -0.6424930205448618 1.2138023277560528 L -0.6424930205448618 1.24132949677464 L -0.5420112733680447 1.24132949677464 C -0.5024856372870679 1.24132949677464 -0.4657863549094161 1.2254867555180735 -0.4386490277809427 1.1967142582394006 C -0.4117455827553025 1.1684123123530137 -0.39783017020452616 1.1301929864241544 -0.40023877266334695 1.0912187111980653 C -0.4218425107404835 0.7193961795606909 -0.4713091150193607 0.33928950775839967 -0.6743734240030523 0.33928950775839967" fill="#f4e7e7" transform="matrix(1,0,0,1,0,0)" fill-rule="nonzero"></path></g><g clip-path="url(#a17bd1f05-175e-40f9-8674-e35fd0d77f32eb4b375f-29db-488b-9757-4089b49cdedd)"><path d=" M -0.6425038494862538 1.2413403257160325 L -0.6425038494862538 1.2138131566974453 L -0.6785100796148147 1.199453980411589 C -0.6824581713846634 1.1978803879628672 -0.6869296670838567 1.1983673243188524 -0.6904465123306787 1.2007538325060851 C -0.6939633575775004 1.2031403406933174 -0.6960676419717977 1.2071156857086094 -0.6960637936113252 1.211365815942842 L -0.6960637936113252 1.2395102346207763 C -0.6960637936113252 1.2480109536135342 -0.6879529165086808 1.2541726212656097 -0.6797878946990763 1.2518552278077113 Z" fill="#8a615c" transform="matrix(1,0,0,1,0,0)" fill-rule="nonzero"></path></g><g clip-path="url(#a17bd1f05-175e-40f9-8674-e35fd0d77f32eb4b375f-29db-488b-9757-4089b49cdedd)"><path d=" M -0.7303157352343745 0.33345270834808555 L -0.6743734240030523 0.33345270834808555 C -0.5726138617419736 0.33345270834808555 -0.5007421777229484 0.4241234346237069 -0.45466503209978226 0.6106302922189567 C -0.45416520343179 0.6127230299974085 -0.45452086459493635 0.6149286975242328 -0.45565315892670366 0.6167582574857957 C -0.456785453258471 0.6185878174473587 -0.4586008177358778 0.6198900908119129 -0.46069675245515307 0.6203763394718002 L -0.48315597690226153 0.6256175471055515 C -0.4874888884031441 0.626577825723211 -0.4917903051448047 0.6238822069355561 -0.4928153926239687 0.6195641688673966 C -0.533824593675656 0.4534265500305898 -0.5932105082696497 0.3726643051286928 -0.6743734240030523 0.3726643051286928 L -0.7303157352343745 0.3726643051286928 C -0.8114894799091693 0.3726643051286928 -0.8708753945031629 0.4534265500305898 -0.9118737666134581 0.6195641688673965 C -0.9128988540926223 0.6238822069355561 -0.9172002708342829 0.626577825723211 -0.9215331823351653 0.6256175471055516 L -0.9440032357236657 0.6203763394718002 C -0.9461002353267277 0.6198929428749766 -0.9479166942212147 0.6185907083171754 -0.9490477251512043 0.6167599028549621 C -0.9501787560811938 0.6149290973927489 -0.9505303464846114 0.612721899633798 -0.9500241271376446 0.6106302922189566 C -0.9039469815144787 0.4241234346237069 -0.8320752974954534 0.33345270834808555 -0.7303157352343745 0.33345270834808555" fill="#8a615c" transform="matrix(1,0,0,1,0,0)" fill-rule="nonzero"></path></g><g clip-path="url(#a17bd1f05-175e-40f9-8674-e35fd0d77f32eb4b375f-29db-488b-9757-4089b49cdedd)"><path d=" M -0.7023554085601054 0.42528213135265613 C -0.6442797958745499 0.42528213135265613 -0.5899509969106429 0.4630751368109051 -0.545259955785659 0.5346002947053848 C -0.5172129975802537 0.5794754278340335 -0.5009912433749653 0.6248920080322844 -0.49639977222473686 0.6386664214829699 L -0.447691193843303 0.6258557838161767 C -0.4453204917326927 0.62541673562507 -0.4430127769855636 0.6268817045248509 -0.44240129008953777 0.6292138871050436 C -0.44178980319351147 0.6315460696852363 -0.44308183345647323 0.6339548741669311 -0.4453629714440126 0.6347355157576564 L -0.5025181241112442 0.6497660864098196 L -0.5038067681368978 0.6455319703255287 C -0.5044565046204208 0.6434203267540792 -0.5693760082657511 0.4344650736531132 -0.7023554085601054 0.4344650736531132 C -0.835378124620028 0.4344650736531132 -0.8999294442580287 0.6438859712339373 -0.9005575228587674 0.6459976148053868 L -0.901792022177461 0.6500584678274048 L -0.9560125317274474 0.6382332638272882 C -0.958310751952288 0.6375394198555725 -0.9596896059016228 0.6351955934223728 -0.9591796315774412 0.632849711531137 C -0.9586696572532595 0.6305038296399011 -0.9564421798704063 0.6289439882789162 -0.9540633222768785 0.629266900354672 L -0.9080403213606729 0.6392945000837088 C -0.9035571396243648 0.6257041786366881 -0.8873787011846446 0.5800060459622438 -0.8592884272136709 0.5348385314160098 C -0.8147056755026076 0.46317259728343346 -0.760431021245661 0.42528213135265613 -0.7023554085601054 0.42528213135265613" fill="#fcf3e7" transform="matrix(1,0,0,1,0,0)" fill-rule="nonzero"></path></g><g clip-path="url(#a17bd1f05-175e-40f9-8674-e35fd0d77f32eb4b375f-29db-488b-9757-4089b49cdedd)"><path d=" M -1.5032205981504376 0.0899856190306613 C -1.51462030923781 0.08353170301387235 -1.525328353878498 0.07592612471265857 -1.5351768041983727 0.0672881578729276 C -1.6470939134851927 0.19787436211963957 -1.6773932915001442 0.44659348801220744 -1.6277534241589944 0.8275231593602944 L -1.589029129741029 0.8224660437302078 C -1.6374778135290537 0.45069765679979384 -1.6095174868547848 0.21121561791464324 -1.503534637450807 0.09031048727242275 L -1.5032205981504376 0.0899856190306613" fill="#8a615c" transform="matrix(1,0,0,1,0,0)" fill-rule="nonzero"></path></g><g clip-path="url(#a17bd1f05-175e-40f9-8674-e35fd0d77f32eb4b375f-29db-488b-9757-4089b49cdedd)"><path d=" M -0.7804537338795586 0.061213121751988536 C -0.7925821482386528 0.06733147363849588 -0.8046131021252186 0.07365557541145215 -0.8161675825905342 0.08088930826134048 C -0.7651740975753782 0.13740555338644114 -0.7364016002967056 0.2243402948818058 -0.7281174601317886 0.3567132744582055 L -0.6891441000618064 0.3542659337036026 C -0.6976664769373485 0.2179295615777131 -0.7263415137434927 0.12480066560609679 -0.7804537338795586 0.061213121751988536" fill="#8a615c" transform="matrix(1,0,0,1,0,0)" fill-rule="nonzero"></path></g><g clip-path="url(#a17bd1f05-175e-40f9-8674-e35fd0d77f32eb4b375f-29db-488b-9757-4089b49cdedd)"><path d=" M -1.500188494560664 0.9048201430167359 C -1.500188494560664 0.9592897182187394 -1.5443056017918693 1.0034393122741205 -1.5987318612283046 1.0034393122741205 C -1.6531472917233478 1.0034393122741205 -1.697264398954553 0.9592897182187394 -1.697264398954553 0.9048201430167359 C -1.697264398954553 0.8503505678147324 -1.6531472917233478 0.8062118027007431 -1.5987318612283046 0.8062118027007431 C -1.5443056017918693 0.8062118027007431 -1.500188494560664 0.8503505678147324 -1.500188494560664 0.9048201430167359" fill="#fcf3e7" transform="matrix(1,0,0,1,0,0)" fill-rule="nonzero"></path></g><g clip-path="url(#a17bd1f05-175e-40f9-8674-e35fd0d77f32eb4b375f-29db-488b-9757-4089b49cdedd)"><path d=" M -1.516280301469248 0.9048201430167359 C -1.5162716837310581 0.9266991448525682 -1.5249548194666422 0.9476854629310111 -1.5404195175693158 0.9631623459566736 C -1.5558842156719899 0.9786392289823359 -1.5768636883325686 0.9873388910203799 -1.5987426901697168 0.9873475053655368 C -1.6442783887232602 0.9873475053655368 -1.681194249928753 0.9503991573358677 -1.681194249928753 0.9048201430167359 C -1.6812028676671693 0.8829440131946732 -1.6725208728347098 0.8619604494997151 -1.6570582055524412 0.846485597294453 C -1.6415955382701728 0.8310107450891909 -1.6206188199930815 0.8223122239542648 -1.5987426901696895 0.8223036096093269 C -1.5531862573090862 0.8223215483520289 -1.5162683377282997 0.8592637081951797 -1.516280301469248 0.9048201430167359" fill="#e9c3ad" transform="matrix(1,0,0,1,0,0)" fill-rule="nonzero"></path></g><g clip-path="url(#a17bd1f05-175e-40f9-8674-e35fd0d77f32eb4b375f-29db-488b-9757-4089b49cdedd)"><path d=" M -1.5547122144696277 0.9048201430167359 C -1.5547062319098859 0.9291452375981206 -1.5744175977921533 0.9488711470361071 -1.5987426901697221 0.9488831055409809 C -1.6104231708283276 0.9488773629254686 -1.6216229680077856 0.9442318019087839 -1.629878253447478 0.9359683931869859 C -1.6381335388871705 0.927704984465188 -1.6427680823685857 0.9165006236739778 -1.6427623369283735 0.9048201430167359 C -1.6430116056124937 0.8889269429234783 -1.6346754202271858 0.8741331798619764 -1.6209515468122202 0.8661137507943181 C -1.6072276733972548 0.8580943217266598 -1.5902468780007464 0.8580943217266599 -1.5765230045857808 0.8661137507943182 C -1.5627991311708154 0.8741331798619765 -1.5544629457855073 0.8889269429234784 -1.5547122144696277 0.9048201430167357" fill="#fcf3e7" transform="matrix(1,0,0,1,0,0)" fill-rule="nonzero"></path></g><g clip-path="url(#a17bd1f05-175e-40f9-8674-e35fd0d77f32eb4b375f-29db-488b-9757-4089b49cdedd)"><path d=" M -1.3872859516071672 -0.02982578853096227 C -1.3872859516071672 -0.02982578853096227 -1.4717516944651448 -0.013289995025304351 -1.5328810686232581 0.06453760675934758 C -1.5426213563853781 0.0757240276252879 -1.5516109570311851 0.08754254887673721 -1.5597909879824983 0.09991575828716959 C -1.548940388707666 0.1070953464300978 -1.5381331051984017 0.11436156610416229 -1.526816861443711 0.12081561517382314 C -1.5197044971829945 0.11016554806327866 -1.5119245647500186 0.0999767662577496 -1.5035238085094147 0.09031048727242241 C -1.4760832710219642 0.05901484664940289 -1.4456864325344845 0.03412993933047563 -1.4081858084938208 0.018915276674647624 C -1.4081858084938208 0.018915276674647624 -1.3925055013581347 -0.008936760585700886 -1.3872859516071672 -0.02982578853096227" fill="#8a615c" transform="matrix(1,0,0,1,0,0)" fill-rule="nonzero"></path></g><g clip-path="url(#a17bd1f05-175e-40f9-8674-e35fd0d77f32eb4b375f-29db-488b-9757-4089b49cdedd)"><path d=" M -0.881184546708393 0.030372296667434788 C -0.8360928347519033 0.049387917751871804 -0.8102333227076918 0.0811058870891816 -0.7860956123448158 0.12219089073061326 C -0.7852617838576281 0.12177939095771542 -0.7844604421946165 0.12134623330203348 -0.7835074953521163 0.12104302294305613 C -0.7715740019380789 0.11705797251078232 -0.7596621664068256 0.11297546160598004 -0.7479452518206292 0.10848145092827996 C -0.7671016491431629 0.07394795682903758 -0.7910227806781979 0.04581436709249581 -0.8202934092609048 0.023041103345018014 C -0.8561263763271929 -0.003706381893341562 -0.9066217300383146 -0.020242175398999473 -0.9066217300383146 -0.020242175398999473 C -0.8961826305363799 0.005866402297229241 -0.881184546708393 0.030372296667434788 -0.881184546708393 0.030372296667434788" fill="#8a615c" transform="matrix(1,0,0,1,0,0)" fill-rule="nonzero"></path></g></g></g><defs><clipPath id="SvgjsClipPath1045"><path d=" M -1.697275227895945 -0.02983440844400509 h 1.2972752278959452 v 1.28216881688801 h -1.2972752278959452 Z"></path></clipPath><clipPath id="a17bd1f05-175e-40f9-8674-e35fd0d77f32eb4b375f-29db-488b-9757-4089b49cdedd"><path d=" M -1.697275227895945 1.2523425301703535 L -0.4000005359527219 1.2523425301703535 L -0.4000005359527219 -0.02982578853096227 L -1.697275227895945 -0.02982578853096227 Z"></path></clipPath></defs></svg>